<svg xmlns="http://www.w3.org/2000/svg" width="92" height="29" viewBox="0 0 92 29">
    <g fill="none" fill-rule="evenodd">
        <path fill="#ffffff" d="M19.587 24.787h4.596V4.511h-4.596zM51.85 17.66c-.51-1.315-5.175-13.153-5.175-13.153l-4.99.004.087.216 7.909 20.06h4.327L61.97 4.511h-5.004S52.665 15.478 51.85 17.66M40.513 6.504c-1.935-1.442-4.286-1.996-8.435-1.993h-5.572v20.276h5.276c4.105 0 6.257-.406 8.13-1.551 2.67-1.65 4.058-4.66 4.056-8.615.002-3.637-1.165-6.409-3.455-8.117m-3.64 14.042c-1.064.723-2.704 1.099-4.985 1.098h-.794V7.652h.647c3.009.004 4.057.23 5.218 1.042 1.523 1.11 2.405 3.277 2.405 5.955s-.913 4.841-2.491 5.897M12.904 14.36c2.595-.7 3.892-2.21 3.875-4.484.002-1.98-1.099-3.685-2.977-4.498-1.584-.708-3.251-.94-6.795-.939H0v20.277h7.835c3.314 0 4.979-.262 6.492-1.003 1.94-.979 3.008-2.658 3.007-4.665.016-2.46-1.502-4.036-4.43-4.688zM4.605 7.631h1.438c2.36.001 3.94-.078 4.819.36.811.396 1.309.95 1.309 2.038-.001 1-.455 1.56-1.273 1.989-.72.377-2.54.554-4.67.552H4.605V7.631zm6.486 13.67c-.84.357-2.233.313-4.667.313H4.6V16.38h1.86c1.95 0 3.54.073 4.497.361 1.165.351 1.766 1.07 1.766 2.264 0 1.389-.675 1.895-1.632 2.297z"/>
        <path fill="#FFF" d="M76.63 1.037l-13.733 13.41 13.725 13.406.006-.003 13.736-13.4L76.63 1.042"/>
        <path fill="#ED1D24" d="M74.336 5.446l-.003 11.201 2.397.001 2.198.001.002-11.202h-2.2"/>
        <path fill="#21409A" d="M80.394 14.455l-1.24.003.001-6.781h1.241c1.26 0 2.22 1.52 2.227 3.388.015 1.826-.965 3.39-2.229 3.39zm-8.577-6.78h2.296v6.782h-2.296V7.674z"/>
        <path fill="#ED1D24" d="M61.965 14.446l.12.12L76.08 28.236l.55.537.55-.537L91.297 14.45 76.634.12l-14.67 14.325zM76.628 27.85l-.006.003-13.725-13.407L76.63 1.036l.002.005 13.733 13.41L76.628 27.85z"/>
        <path fill="#ED1D24" d="M76.628 20.912l-6.618-6.466h-6.496L74.951 25.62l.122.12 1.554 1.518 13.122-12.81H83.25"/>
    </g>
</svg>
