<svg xmlns="http://www.w3.org/2000/svg" width="24" height="24" viewBox="0 0 24 24">
  <g id="ic_ipload" transform="translate(-1227 -110)">
    <rect id="Rectangle_48" data-name="Rectangle 48" width="24" height="24" transform="translate(1227 110)" fill="#01579b" opacity="0"/>
    <path id="Path_3" data-name="Path 3" d="M14.794.79a6.561,6.561,0,0,1,1.392,1.062,6.4,6.4,0,0,1,1.062,1.41,6.223,6.223,0,0,1,.605,1.667,6.222,6.222,0,0,1,.128,1.831,5.856,5.856,0,0,1-.367,1.722,6.679,6.679,0,0,1-.824,1.538,6.424,6.424,0,0,1-1.245,1.264l-.989-1.3a4.754,4.754,0,0,0,1.52-2.079,4.576,4.576,0,0,0,.183-2.628,4.436,4.436,0,0,0-1.236-2.262A4.563,4.563,0,0,0,12.779,1.76a4.8,4.8,0,0,0-2-.018,4.564,4.564,0,0,0-1.74.751,4.984,4.984,0,0,0-1.3,1.373A4.5,4.5,0,0,0,7.1,5.7a.921.921,0,0,1-.586.815A1.008,1.008,0,0,1,5.508,6.43a2.338,2.338,0,0,0-.934-.4,2.444,2.444,0,0,0-1.025.036,2.322,2.322,0,0,0-1.182.659A2.4,2.4,0,0,0,1.717,7.9a2.373,2.373,0,0,0,.477,2.124,2.374,2.374,0,0,0,1.941.934v1.63A4.039,4.039,0,0,1,2.3,12.163,4.185,4.185,0,0,1,.921,11.046a4.227,4.227,0,0,1-.8-1.612A3.923,3.923,0,0,1,.106,7.548,4.021,4.021,0,0,1,1.2,5.57,4.019,4.019,0,0,1,4.437,4.361a4.584,4.584,0,0,1,1.218.275A6.143,6.143,0,0,1,6.7,2.493a6.311,6.311,0,0,1,3.937-2.4,6.166,6.166,0,0,1,2.492.074A5.843,5.843,0,0,1,14.794.79M10.362,17.218H8.787V10.35l-2.2,2.216-1.1-1.117L8.6,8.335a1.37,1.37,0,0,1,1.941,0l3.132,3.114L12.56,12.566l-2.2-2.216Z" transform="translate(1230 113)" fill="#01579b"/>
  </g>
</svg>
