<svg xmlns="http://www.w3.org/2000/svg" width="24" height="24" viewBox="0 0 24 24"><defs><style>.a{fill:#fff;opacity:0;}.b,.c{fill:#21409a;}.b{opacity:0.3;}.d{fill:none;fill-rule:evenodd;}</style></defs><g transform="translate(4365 -640)"><rect class="a" width="24" height="24" transform="translate(-4365 640)"/><g transform="translate(4.112 57.351)"><g transform="translate(-4367 585)"><path class="b" d="M5,27.491V15H24.777V27.491a2.082,2.082,0,0,1-2.082,2.082H7.082A2.082,2.082,0,0,1,5,27.491" transform="translate(-5 -9.275)"/><path class="c" d="M24.777,9.082V12.2H5V9.082A2.082,2.082,0,0,1,7.082,7H22.695a2.082,2.082,0,0,1,2.082,2.082" transform="translate(-5 -5.439)"/><path class="c" d="M24.491,9.561A1.561,1.561,0,1,1,22.929,8a1.561,1.561,0,0,1,1.561,1.561m-9.368,0A1.561,1.561,0,1,1,13.561,8a1.561,1.561,0,0,1,1.561,1.561" transform="translate(-8.357 -5.918)"/><path class="c" d="M23.409,4a1.041,1.041,0,0,0-1.041,1.041v2.6a1.041,1.041,0,0,0,2.082,0v-2.6A1.041,1.041,0,0,0,23.409,4M14.041,4A1.041,1.041,0,0,0,13,5.041v2.6a1.041,1.041,0,0,0,2.082,0v-2.6A1.041,1.041,0,0,0,14.041,4" transform="translate(-8.836 -4)"/></g><g transform="translate(-4363.357 592.286)"><path class="d" d="M0,0H12.491V12.491H0Z"/><path class="c" d="M6.069,11.828a.626.626,0,0,1-.886-.886L8.942,7.183a.626.626,0,0,1,.866-.019l3.732,3.779a.626.626,0,1,1-.847.924L9.4,8.494Z" transform="translate(-3.138 -3.783)"/><rect class="b" width="8" transform="translate(2.245 2.362)"/></g></g></g></svg>