<svg id="_24x24-guide" data-name="24x24-guide" xmlns="http://www.w3.org/2000/svg" xmlns:xlink="http://www.w3.org/1999/xlink" width="24" height="24" viewBox="0 0 24 24">
  <defs>
    <clipPath id="clip-path">
      <rect id="Rectangle_38" data-name="Rectangle 38" width="18" height="17.022" transform="translate(0 0)" fill="#01579b"/>
    </clipPath>
  </defs>
  <rect id="Rectangle_37" data-name="Rectangle 37" width="24" height="24" fill="#01579b" opacity="0"/>
  <g id="Group_13" data-name="Group 13" transform="translate(3 4)">
    <g id="Group_12" data-name="Group 12" clip-path="url(#clip-path)">
      <path id="Path_2" data-name="Path 2" d="M7.948,16.534A3.4,3.4,0,0,0,7.07,15.6a1.829,1.829,0,0,0-1.083-.361H0V0H5.987A3.5,3.5,0,0,1,7.679.4,4.763,4.763,0,0,1,9,1.465,4.767,4.767,0,0,1,10.322.4,3.5,3.5,0,0,1,12.014,0H18V15.234H12.014a2.29,2.29,0,0,0-1.28.392,4.554,4.554,0,0,0-1.073.99,1.01,1.01,0,0,1-.888.4.994.994,0,0,1-.825-.485m.041-13.5a3.815,3.815,0,0,0-.9-.919,1.866,1.866,0,0,0-1.1-.361H1.776v11.7H5.987a3.474,3.474,0,0,1,1.083.165,3.533,3.533,0,0,1,.919.454Zm1.775.351V14.139a4.941,4.941,0,0,1,1.053-.495,3.753,3.753,0,0,1,1.2-.186h4.211V1.754H12.014a1.907,1.907,0,0,0-1.187.423A4.211,4.211,0,0,0,9.868,3.24a.671.671,0,0,1-.052.083.589.589,0,0,1-.052.062" fill="#01579b"/>
    </g>
  </g>
</svg>
